<svg xmlns="http://www.w3.org/2000/svg" xmlns:xlink="http://www.w3.org/1999/xlink" width="500" zoomAndPan="magnify" viewBox="0 0 375 374.999991" height="500" preserveAspectRatio="xMidYMid meet" version="1.0"><defs><g/><clipPath id="b3e683771c"><path d="M 37.5 30.867188 L 344.132812 30.867188 L 344.132812 337.5 L 37.5 337.5 Z M 37.5 30.867188 " clip-rule="nonzero"/></clipPath><clipPath id="abe5840dcf"><path d="M 190.816406 30.867188 C 106.140625 30.867188 37.5 99.511719 37.5 184.183594 C 37.5 268.859375 106.140625 337.5 190.816406 337.5 C 275.488281 337.5 344.132812 268.859375 344.132812 184.183594 C 344.132812 99.511719 275.488281 30.867188 190.816406 30.867188 Z M 190.816406 30.867188 " clip-rule="nonzero"/></clipPath></defs><g clip-path="url(#b3e683771c)"><g clip-path="url(#abe5840dcf)"><path fill="#006adc" d="M 37.5 30.867188 L 344.132812 30.867188 L 344.132812 337.5 L 37.5 337.5 Z M 37.5 30.867188 " fill-opacity="1" fill-rule="nonzero"/></g></g><g fill="#ffffff" fill-opacity="1"><g transform="translate(107.92795, 273.269885)"><g><path d="M 12.75 0.4375 C 11.15625 0.4375 9.515625 0.273438 7.828125 -0.046875 C 6.148438 -0.378906 4.710938 -0.847656 3.515625 -1.453125 C 2.816406 -1.785156 2.320312 -2.238281 2.03125 -2.8125 C 1.75 -3.382812 1.644531 -3.976562 1.71875 -4.59375 C 1.800781 -5.207031 2.023438 -5.753906 2.390625 -6.234375 C 2.753906 -6.722656 3.234375 -7.050781 3.828125 -7.21875 C 4.429688 -7.382812 5.109375 -7.300781 5.859375 -6.96875 C 6.859375 -6.46875 7.984375 -6.09375 9.234375 -5.84375 C 10.484375 -5.59375 11.65625 -5.46875 12.75 -5.46875 C 14.46875 -5.46875 15.671875 -5.695312 16.359375 -6.15625 C 17.054688 -6.613281 17.40625 -7.179688 17.40625 -7.859375 C 17.40625 -8.460938 17.160156 -8.945312 16.671875 -9.3125 C 16.191406 -9.675781 15.34375 -9.988281 14.125 -10.25 L 9.546875 -11.21875 C 4.585938 -12.289062 2.109375 -14.882812 2.109375 -19 C 2.109375 -20.800781 2.597656 -22.378906 3.578125 -23.734375 C 4.554688 -25.085938 5.914062 -26.132812 7.65625 -26.875 C 9.40625 -27.625 11.441406 -28 13.765625 -28 C 15.117188 -28 16.492188 -27.847656 17.890625 -27.546875 C 19.285156 -27.253906 20.492188 -26.804688 21.515625 -26.203125 C 22.296875 -25.785156 22.789062 -25.21875 23 -24.5 C 23.207031 -23.78125 23.179688 -23.082031 22.921875 -22.40625 C 22.660156 -21.726562 22.195312 -21.234375 21.53125 -20.921875 C 20.863281 -20.609375 20.019531 -20.660156 19 -21.078125 C 18.21875 -21.421875 17.359375 -21.675781 16.421875 -21.84375 C 15.484375 -22.007812 14.570312 -22.09375 13.6875 -22.09375 C 12.226562 -22.09375 11.109375 -21.835938 10.328125 -21.328125 C 9.546875 -20.828125 9.15625 -20.171875 9.15625 -19.359375 C 9.15625 -18.785156 9.390625 -18.316406 9.859375 -17.953125 C 10.328125 -17.585938 11.160156 -17.273438 12.359375 -17.015625 L 16.890625 -16.03125 C 21.921875 -14.96875 24.4375 -12.441406 24.4375 -8.453125 C 24.4375 -6.648438 23.953125 -5.082031 22.984375 -3.75 C 22.023438 -2.425781 20.671875 -1.394531 18.921875 -0.65625 C 17.179688 0.0703125 15.125 0.4375 12.75 0.4375 Z M 12.75 0.4375 "/></g></g></g><g fill="#ffffff" fill-opacity="1"><g transform="translate(132.801313, 273.269885)"><g><path d="M 12.125 0.4375 C 9.207031 0.4375 7.039062 -0.238281 5.625 -1.59375 C 4.21875 -2.957031 3.515625 -5.007812 3.515625 -7.75 L 3.515625 -14.125 L 2.1875 -14.125 C 0.4375 -14.125 -0.4375 -14.984375 -0.4375 -16.703125 C -0.4375 -18.390625 0.4375 -19.234375 2.1875 -19.234375 L 3.515625 -19.234375 L 3.515625 -21.671875 C 3.515625 -22.816406 3.8125 -23.6875 4.40625 -24.28125 C 5.007812 -24.882812 5.875 -25.1875 7 -25.1875 C 9.320312 -25.1875 10.484375 -24.015625 10.484375 -21.671875 L 10.484375 -19.234375 L 13.6875 -19.234375 C 15.457031 -19.234375 16.34375 -18.390625 16.34375 -16.703125 C 16.34375 -14.984375 15.457031 -14.125 13.6875 -14.125 L 10.484375 -14.125 L 10.484375 -7.984375 C 10.484375 -6.097656 11.4375 -5.15625 13.34375 -5.15625 C 13.707031 -5.15625 14.054688 -5.191406 14.390625 -5.265625 C 14.734375 -5.347656 15.046875 -5.390625 15.328125 -5.390625 C 15.742188 -5.421875 16.082031 -5.296875 16.34375 -5.015625 C 16.601562 -4.742188 16.734375 -4.128906 16.734375 -3.171875 C 16.734375 -2.390625 16.613281 -1.726562 16.375 -1.1875 C 16.144531 -0.65625 15.734375 -0.273438 15.140625 -0.046875 C 14.773438 0.0859375 14.273438 0.203125 13.640625 0.296875 C 13.015625 0.390625 12.507812 0.4375 12.125 0.4375 Z M 12.125 0.4375 "/></g></g></g><g fill="#ffffff" fill-opacity="1"><g transform="translate(148.87508, 273.269885)"><g><path d="M 11.765625 0.4375 C 9.628906 0.4375 7.765625 0.03125 6.171875 -0.78125 C 4.585938 -1.59375 3.351562 -2.753906 2.46875 -4.265625 C 1.582031 -5.773438 1.140625 -7.5625 1.140625 -9.625 C 1.140625 -11.707031 1.582031 -13.5 2.46875 -15 C 3.351562 -16.5 4.585938 -17.648438 6.171875 -18.453125 C 7.765625 -19.265625 9.628906 -19.671875 11.765625 -19.671875 C 13.910156 -19.671875 15.773438 -19.265625 17.359375 -18.453125 C 18.953125 -17.648438 20.1875 -16.5 21.0625 -15 C 21.9375 -13.5 22.375 -11.707031 22.375 -9.625 C 22.375 -7.5625 21.9375 -5.773438 21.0625 -4.265625 C 20.1875 -2.753906 18.953125 -1.59375 17.359375 -0.78125 C 15.773438 0.03125 13.910156 0.4375 11.765625 0.4375 Z M 11.765625 -4.6875 C 12.816406 -4.6875 13.679688 -5.078125 14.359375 -5.859375 C 15.035156 -6.648438 15.375 -7.90625 15.375 -9.625 C 15.375 -11.363281 15.035156 -12.617188 14.359375 -13.390625 C 13.679688 -14.160156 12.816406 -14.546875 11.765625 -14.546875 C 10.703125 -14.546875 9.832031 -14.160156 9.15625 -13.390625 C 8.476562 -12.617188 8.140625 -11.363281 8.140625 -9.625 C 8.140625 -7.90625 8.476562 -6.648438 9.15625 -5.859375 C 9.832031 -5.078125 10.703125 -4.6875 11.765625 -4.6875 Z M 11.765625 -4.6875 "/></g></g></g><g fill="#ffffff" fill-opacity="1"><g transform="translate(171.832089, 273.269885)"><g><path d="M 5.59375 0.359375 C 3.21875 0.359375 2.03125 -0.816406 2.03125 -3.171875 L 2.03125 -16.109375 C 2.03125 -18.429688 3.164062 -19.59375 5.4375 -19.59375 C 6.507812 -19.59375 7.335938 -19.289062 7.921875 -18.6875 C 8.503906 -18.09375 8.796875 -17.234375 8.796875 -16.109375 L 8.796875 -16 C 9.242188 -17.113281 9.960938 -18 10.953125 -18.65625 C 11.941406 -19.3125 13.113281 -19.648438 14.46875 -19.671875 C 15.226562 -19.703125 15.796875 -19.515625 16.171875 -19.109375 C 16.546875 -18.703125 16.75 -17.953125 16.78125 -16.859375 C 16.78125 -15.921875 16.582031 -15.175781 16.1875 -14.625 C 15.800781 -14.082031 15.0625 -13.757812 13.96875 -13.65625 L 13.0625 -13.578125 C 11.675781 -13.441406 10.671875 -13.050781 10.046875 -12.40625 C 9.421875 -11.769531 9.109375 -10.828125 9.109375 -9.578125 L 9.109375 -3.171875 C 9.109375 -0.816406 7.9375 0.359375 5.59375 0.359375 Z M 5.59375 0.359375 "/></g></g></g><g fill="#ffffff" fill-opacity="1"><g transform="translate(188.218738, 273.269885)"><g><path d="M 5.46875 -22.375 C 4.25 -22.375 3.304688 -22.660156 2.640625 -23.234375 C 1.972656 -23.804688 1.640625 -24.640625 1.640625 -25.734375 C 1.640625 -26.804688 1.972656 -27.628906 2.640625 -28.203125 C 3.304688 -28.773438 4.25 -29.0625 5.46875 -29.0625 C 8.050781 -29.0625 9.34375 -27.953125 9.34375 -25.734375 C 9.34375 -24.640625 9.007812 -23.804688 8.34375 -23.234375 C 7.6875 -22.660156 6.726562 -22.375 5.46875 -22.375 Z M 5.46875 0.359375 C 4.351562 0.359375 3.5 0.03125 2.90625 -0.625 C 2.320312 -1.28125 2.03125 -2.21875 2.03125 -3.4375 L 2.03125 -15.796875 C 2.03125 -17.023438 2.320312 -17.960938 2.90625 -18.609375 C 3.5 -19.265625 4.351562 -19.59375 5.46875 -19.59375 C 6.59375 -19.59375 7.460938 -19.265625 8.078125 -18.609375 C 8.691406 -17.960938 9 -17.023438 9 -15.796875 L 9 -3.4375 C 9 -2.21875 8.695312 -1.28125 8.09375 -0.625 C 7.5 0.03125 6.625 0.359375 5.46875 0.359375 Z M 5.46875 0.359375 "/></g></g></g><g fill="#ffffff" fill-opacity="1"><g transform="translate(198.621658, 273.269885)"><g><path d="M 8.71875 0.4375 C 7.226562 0.4375 5.914062 0.160156 4.78125 -0.390625 C 3.65625 -0.941406 2.769531 -1.691406 2.125 -2.640625 C 1.488281 -3.585938 1.171875 -4.675781 1.171875 -5.90625 C 1.171875 -7.289062 1.535156 -8.390625 2.265625 -9.203125 C 2.992188 -10.023438 4.164062 -10.613281 5.78125 -10.96875 C 7.40625 -11.320312 9.554688 -11.5 12.234375 -11.5 L 13.734375 -11.5 L 13.734375 -12.046875 C 13.734375 -12.984375 13.488281 -13.644531 13 -14.03125 C 12.519531 -14.425781 11.691406 -14.625 10.515625 -14.625 C 9.867188 -14.625 9.160156 -14.550781 8.390625 -14.40625 C 7.617188 -14.269531 6.75 -14.019531 5.78125 -13.65625 C 4.925781 -13.34375 4.210938 -13.351562 3.640625 -13.6875 C 3.066406 -14.03125 2.691406 -14.519531 2.515625 -15.15625 C 2.347656 -15.789062 2.414062 -16.425781 2.71875 -17.0625 C 3.019531 -17.707031 3.597656 -18.1875 4.453125 -18.5 C 5.703125 -18.9375 6.851562 -19.238281 7.90625 -19.40625 C 8.96875 -19.582031 9.941406 -19.671875 10.828125 -19.671875 C 14.035156 -19.671875 16.414062 -18.976562 17.96875 -17.59375 C 19.519531 -16.21875 20.296875 -14.039062 20.296875 -11.0625 L 20.296875 -3.171875 C 20.296875 -0.816406 19.226562 0.359375 17.09375 0.359375 C 15.0625 0.359375 13.976562 -0.6875 13.84375 -2.78125 C 13.476562 -1.789062 12.851562 -1.003906 11.96875 -0.421875 C 11.082031 0.148438 10 0.4375 8.71875 0.4375 Z M 10.28125 -4.109375 C 11.25 -4.109375 12.066406 -4.421875 12.734375 -5.046875 C 13.398438 -5.671875 13.734375 -6.492188 13.734375 -7.515625 L 13.734375 -8.21875 L 12.234375 -8.21875 C 10.703125 -8.21875 9.578125 -8.050781 8.859375 -7.71875 C 8.140625 -7.394531 7.78125 -6.878906 7.78125 -6.171875 C 7.78125 -5.578125 7.992188 -5.082031 8.421875 -4.6875 C 8.859375 -4.300781 9.476562 -4.109375 10.28125 -4.109375 Z M 10.28125 -4.109375 "/></g></g></g><g fill="#ffffff" fill-opacity="1"><g transform="translate(220.248955, 273.269885)"><g><path d="M 12.59375 0.359375 C 11.445312 0.359375 10.5625 0.046875 9.9375 -0.578125 C 9.3125 -1.210938 9 -2.113281 9 -3.28125 L 9 -21.703125 L 2.859375 -21.703125 C 0.867188 -21.703125 -0.125 -22.679688 -0.125 -24.640625 C -0.125 -26.597656 0.867188 -27.578125 2.859375 -27.578125 L 22.328125 -27.578125 C 24.304688 -27.578125 25.296875 -26.597656 25.296875 -24.640625 C 25.296875 -22.679688 24.304688 -21.703125 22.328125 -21.703125 L 16.1875 -21.703125 L 16.1875 -3.28125 C 16.1875 -2.113281 15.878906 -1.210938 15.265625 -0.578125 C 14.660156 0.046875 13.769531 0.359375 12.59375 0.359375 Z M 12.59375 0.359375 "/></g></g></g><g fill="#ffffff" fill-opacity="1"><g transform="translate(244.848555, 273.269885)"><g><path d="M 8.71875 0.4375 C 7.226562 0.4375 5.914062 0.160156 4.78125 -0.390625 C 3.65625 -0.941406 2.769531 -1.691406 2.125 -2.640625 C 1.488281 -3.585938 1.171875 -4.675781 1.171875 -5.90625 C 1.171875 -7.289062 1.535156 -8.390625 2.265625 -9.203125 C 2.992188 -10.023438 4.164062 -10.613281 5.78125 -10.96875 C 7.40625 -11.320312 9.554688 -11.5 12.234375 -11.5 L 13.734375 -11.5 L 13.734375 -12.046875 C 13.734375 -12.984375 13.488281 -13.644531 13 -14.03125 C 12.519531 -14.425781 11.691406 -14.625 10.515625 -14.625 C 9.867188 -14.625 9.160156 -14.550781 8.390625 -14.40625 C 7.617188 -14.269531 6.75 -14.019531 5.78125 -13.65625 C 4.925781 -13.34375 4.210938 -13.351562 3.640625 -13.6875 C 3.066406 -14.03125 2.691406 -14.519531 2.515625 -15.15625 C 2.347656 -15.789062 2.414062 -16.425781 2.71875 -17.0625 C 3.019531 -17.707031 3.597656 -18.1875 4.453125 -18.5 C 5.703125 -18.9375 6.851562 -19.238281 7.90625 -19.40625 C 8.96875 -19.582031 9.941406 -19.671875 10.828125 -19.671875 C 14.035156 -19.671875 16.414062 -18.976562 17.96875 -17.59375 C 19.519531 -16.21875 20.296875 -14.039062 20.296875 -11.0625 L 20.296875 -3.171875 C 20.296875 -0.816406 19.226562 0.359375 17.09375 0.359375 C 15.0625 0.359375 13.976562 -0.6875 13.84375 -2.78125 C 13.476562 -1.789062 12.851562 -1.003906 11.96875 -0.421875 C 11.082031 0.148438 10 0.4375 8.71875 0.4375 Z M 10.28125 -4.109375 C 11.25 -4.109375 12.066406 -4.421875 12.734375 -5.046875 C 13.398438 -5.671875 13.734375 -6.492188 13.734375 -7.515625 L 13.734375 -8.21875 L 12.234375 -8.21875 C 10.703125 -8.21875 9.578125 -8.050781 8.859375 -7.71875 C 8.140625 -7.394531 7.78125 -6.878906 7.78125 -6.171875 C 7.78125 -5.578125 7.992188 -5.082031 8.421875 -4.6875 C 8.859375 -4.300781 9.476562 -4.109375 10.28125 -4.109375 Z M 10.28125 -4.109375 "/></g></g></g><g fill="#ffffff" fill-opacity="1"><g transform="translate(89.537394, 227.977358)"><g><path d="M 163.628906 -106.996094 C 162.933594 -109.085938 161.074219 -111.175781 158.289062 -113.496094 C 156.898438 -113.496094 155.273438 -113.03125 152.488281 -111.40625 C 145.0625 -106.300781 136.472656 -91.679688 142.042969 -74.269531 L 142.277344 -73.574219 L 144.828125 -64.753906 L 145.988281 -60.34375 L 149.703125 -63.59375 C 155.503906 -68.46875 159.914062 -73.574219 162.699219 -78.449219 C 166.644531 -85.410156 167.808594 -91.445312 165.253906 -99.570312 L 165.023438 -101.425781 C 164.558594 -103.515625 164.09375 -105.605469 163.628906 -106.996094 Z M 170.359375 -135.546875 C 180.570312 -130.902344 187.070312 -119.996094 189.390625 -106.300781 L 189.390625 -106.070312 L 189.625 -106.070312 C 193.335938 -92.144531 190.785156 -78.21875 184.75 -66.84375 C 178.714844 -55.9375 169.894531 -47.117188 159.683594 -39.222656 L 156.898438 -37.136719 L 159.21875 -34.816406 C 164.558594 -29.707031 171.519531 -26.921875 186.605469 -26.460938 L 186.605469 -2.089844 C 165.253906 -2.785156 148.773438 -9.050781 138.332031 -20.890625 C 138.097656 -21.121094 137.867188 -21.351562 137.402344 -21.816406 L 135.777344 -23.675781 L 133.457031 -22.511719 C 117.90625 -13.460938 102.121094 -6.265625 90.054688 0.230469 L 69.628906 -11.371094 L 69.628906 -90.285156 L 65.21875 -88.195312 C 58.023438 -84.714844 50.132812 -83.089844 42.242188 -83.554688 C 31.332031 -84.25 20.65625 -90.054688 13.925781 -99.570312 C 7.660156 -108.390625 4.410156 -120.226562 4.640625 -134.847656 L 28.78125 -133.921875 C 29.011719 -123.707031 31.332031 -117.210938 33.886719 -113.496094 C 36.671875 -109.550781 40.152344 -108.15625 43.867188 -107.925781 C 51.527344 -107.460938 63.128906 -113.265625 69.398438 -127.421875 L 95.160156 -123.476562 L 95.160156 -30.171875 L 99.570312 -32.261719 C 107.230469 -36.207031 114.886719 -40.152344 122.546875 -44.5625 L 124.636719 -45.722656 L 123.707031 -47.8125 C 121.851562 -54.3125 120.226562 -60.34375 118.136719 -68.003906 C 109.550781 -94.929688 120.691406 -119.761719 138.5625 -131.597656 C 144.132812 -135.3125 151.09375 -137.867188 158.058594 -137.867188 C 162.238281 -138.097656 166.414062 -137.402344 170.359375 -135.546875 Z M 170.359375 -135.546875 "/></g></g></g></svg>